<?xml version="1.0" encoding="UTF-8"?>
<svg id="Layer_1" data-name="Layer 1" xmlns="http://www.w3.org/2000/svg" viewBox="0 0 1024 1024">
  <defs>
    <style>
      .cls-1 {
        fill: #2a261e;
      }

      .cls-2 {
        fill: #eee5d7;
      }
    </style>
  </defs>
  <circle class="cls-1" cx="512" cy="512" r="512"/>
  <g>
    <path class="cls-2" d="M832.51,656.02c-20.34,0-39-15.04-39-37.49,0-4.94,1.03-9.48,2.84-13.53h-393.33v-185.99h393.33c-1.81-4.06-2.84-8.63-2.84-13.55,0-22.48,17.87-37.49,39-37.49s35.15,13.06,40.66,28.93l14.44-8.14v-19l39.77-16.38v317.23l-39.77-16.38v-19l-14.44-8.17c-5.52,15.87-20.33,28.96-40.66,28.96Z"/>
    <path class="cls-2" d="M191.49,656.02c20.34,0,39-15.04,39-37.49,0-4.94-1.03-9.48-2.84-13.53h393.33v-185.99H227.64c1.81-4.06,2.84-8.63,2.84-13.55,0-22.48-17.87-37.49-39-37.49s-35.15,13.06-40.66,28.93l-14.44-8.14v-19l-39.77-16.38v317.23l39.77-16.38v-19l14.44-8.17c5.52,15.87,20.33,28.96,40.66,28.96h.01Z"/>
    <g>
      <path class="cls-1" d="M790.41,577.62H233.59c-9.03,0-16.38-7.29-16.38-16.24s7.35-16.24,16.38-16.24h556.81c9.03,0,16.38,7.29,16.38,16.24s-7.35,16.24-16.38,16.24h0Z"/>
      <path class="cls-1" d="M790.41,478.86H233.59c-9.03,0-16.38-7.29-16.38-16.24s7.35-16.24,16.38-16.24h556.81c9.03,0,16.38,7.29,16.38,16.24s-7.35,16.24-16.38,16.24h0Z"/>
      <path class="cls-1" d="M806.79,512h0c0,8.95-7.35,16.24-16.38,16.24H233.59c-9.03,0-16.38-7.29-16.38-16.24s7.35-16.24,16.38-16.24h556.82c9.03,0,16.38,7.29,16.38,16.24Z"/>
    </g>
    <path class="cls-1" d="M827.96,369.27c-16.02,0-29.69,11.6-29.69,28.25,0,12.64,8.71,21.39,21.52,21.54,9.07-.08,15.14-5.83,15.25-14.24v-.21c0-5.26-4.39-9.53-9.01-9.53-.06,0-.14-.03-.21-.03-2.69.14-4.76,2.26-4.76,4.88,0,3.59-2.95,6.51-6.6,6.51s-6.6-2.92-6.6-6.51c0-9.83,8.11-17.87,18.17-17.87.33,0,.65.06.93.09,11.82.54,21.24,10.05,21.24,22.63,0,17.55-13.1,23.23-13.1,23.23-4.25,2.45-9.24,3.86-14.6,4-.14,0-.25.03-.35.03-.08,0-.14-.03-.22-.03-.11,0-.17.03-.28.03-.14,0-.28-.03-.39-.03-7.92-.17-14.92-2.56-20.52-6.64l-.02-.02h0c-2.26-1.15-4.13-2.83-5.93-4.56-5.14-4.98-7.73-17.87-7.73-23.28,0-24.73,19.67-41.24,42.9-41.24s38.66,14.36,44.73,31.82l.91,3.83c1.48,6.23,2.23,12.61,2.23,19.01v152.03h-13.18v-156.39c0-20.63-13.07-37.32-34.7-37.32v.02Z"/>
    <path class="cls-1" d="M827.96,656.02c-16.02,0-29.69-11.6-29.69-28.25,0-12.64,8.71-21.39,21.52-21.54,9.07.08,15.14,5.83,15.25,14.24v.21c0,5.26-4.39,9.53-9.01,9.53-.06,0-.14.03-.21.03-2.69-.14-4.76-2.26-4.76-4.88,0-3.59-2.95-6.51-6.6-6.51s-6.6,2.92-6.6,6.51c0,9.83,8.11,17.87,18.17,17.87.33,0,.65-.06.93-.09,11.82-.54,21.24-10.05,21.24-22.63,0-17.55-13.1-23.23-13.1-23.23-4.25-2.45-9.24-3.86-14.6-4-.14,0-.25-.03-.35-.03-.08,0-.14.03-.22.03-.11,0-.17-.03-.28-.03-.14,0-.28.03-.39.03-7.92.17-14.92,2.56-20.52,6.64l-.02.02h0c-2.26,1.15-4.13,2.83-5.93,4.56-5.14,4.98-7.73,17.87-7.73,23.28,0,24.73,19.67,41.24,42.9,41.24s38.66-14.36,44.73-31.82l.91-3.83c1.48-6.23,2.23-12.61,2.23-19.01v-152.03h-13.18v156.39c0,20.63-13.07,37.32-34.7,37.32v-.02Z"/>
    <path class="cls-1" d="M194.28,369.27c16.02,0,29.69,11.6,29.69,28.25,0,12.64-8.71,21.39-21.52,21.54-9.07-.08-15.14-5.83-15.25-14.24v-.21c0-5.26,4.39-9.53,9.01-9.53.06,0,.14-.03.21-.03,2.69.14,4.76,2.26,4.76,4.88,0,3.59,2.95,6.51,6.6,6.51s6.6-2.92,6.6-6.51c0-9.83-8.11-17.87-18.17-17.87-.33,0-.65.06-.93.09-11.82.54-21.24,10.05-21.24,22.63,0,17.55,13.1,23.23,13.1,23.23,4.25,2.45,9.24,3.86,14.6,4,.14,0,.25.03.35.03.08,0,.14-.03.22-.03.11,0,.17.03.28.03.14,0,.28-.03.39-.03,7.92-.17,14.92-2.56,20.52-6.64l.02-.02h0c2.26-1.15,4.13-2.83,5.93-4.56,5.14-4.98,7.73-17.87,7.73-23.28,0-24.73-19.67-41.24-42.9-41.24s-38.66,14.36-44.73,31.82l-.91,3.83c-1.48,6.23-2.23,12.61-2.23,19.01v152.03h13.18v-156.39c0-20.63,13.07-37.32,34.7-37.32v.02Z"/>
    <path class="cls-1" d="M194.28,656.02c16.02,0,29.69-11.6,29.69-28.25,0-12.64-8.71-21.39-21.52-21.54-9.07.08-15.14,5.83-15.25,14.24v.21c0,5.26,4.39,9.53,9.01,9.53.06,0,.14.03.21.03,2.69-.14,4.76-2.26,4.76-4.88,0-3.59,2.95-6.51,6.6-6.51s6.6,2.92,6.6,6.51c0,9.83-8.11,17.87-18.17,17.87-.33,0-.65-.06-.93-.09-11.82-.54-21.24-10.05-21.24-22.63,0-17.55,13.1-23.23,13.1-23.23,4.25-2.45,9.24-3.86,14.6-4,.14,0,.25-.03.35-.03.08,0,.14.03.22.03.11,0,.17-.03.28-.03.14,0,.28.03.39.03,7.92.17,14.92,2.56,20.52,6.64l.02.02h0c2.26,1.15,4.13,2.83,5.93,4.56,5.14,4.98,7.73,17.87,7.73,23.28,0,24.73-19.67,41.24-42.9,41.24s-38.66-14.36-44.73-31.82l-.91-3.83c-1.48-6.23-2.23-12.61-2.23-19.01v-152.03h13.18v156.39c0,20.63,13.07,37.32,34.7,37.32v-.02Z"/>
  </g>
  <g>
    <path class="cls-2" d="M656.02,191.49c0,20.34-15.04,39-37.49,39-4.94,0-9.48-1.03-13.53-2.84v393.33h-185.99V227.64c-4.06,1.81-8.63,2.84-13.55,2.84-22.48,0-37.49-17.87-37.49-39s13.06-35.15,28.93-40.66l-8.14-14.44h-19l-16.38-39.77h317.23l-16.38,39.77h-19l-8.17,14.44c15.87,5.52,28.96,20.33,28.96,40.66h0Z"/>
    <path class="cls-2" d="M656.02,832.51c0-20.34-15.04-39-37.49-39-4.94,0-9.48,1.03-13.53,2.84v-393.33h-185.99v393.33c-4.06-1.81-8.63-2.84-13.55-2.84-22.48,0-37.49,17.87-37.49,39s13.06,35.15,28.93,40.66l-8.14,14.44h-19l-16.38,39.77h317.23l-16.38-39.77h-19l-8.17-14.44c15.87-5.52,28.96-20.33,28.96-40.66Z"/>
    <g>
      <path class="cls-1" d="M577.62,233.59v556.81c0,9.03-7.29,16.38-16.24,16.38s-16.24-7.35-16.24-16.38V233.59c0-9.03,7.29-16.38,16.24-16.38s16.24,7.35,16.24,16.38Z"/>
      <path class="cls-1" d="M478.86,233.59v556.81c0,9.03-7.29,16.38-16.24,16.38s-16.24-7.35-16.24-16.38V233.59c0-9.03,7.29-16.38,16.24-16.38s16.24,7.35,16.24,16.38Z"/>
      <path class="cls-1" d="M512,217.21c-8.95,0-16.24,7.35-16.24,16.38v556.81c0,9.03,7.29,16.38,16.24,16.38s16.24-7.35,16.24-16.38V233.59c0-9.03-7.29-16.38-16.24-16.38ZM516.17,797.41c-.44.28-.91.51-1.4.69-.87.32-1.8.5-2.77.5-2.23,0-4.25-.92-5.69-2.41,1.45,1.48,3.47,2.4,5.69,2.4.97,0,1.9-.17,2.77-.49.49-.19.96-.42,1.4-.69.56-.35,1.07-.75,1.52-1.22-.44.47-.96.88-1.52,1.22Z"/>
    </g>
    <path class="cls-1" d="M369.27,196.04c0,16.02,11.6,29.69,28.25,29.69,12.64,0,21.39-8.71,21.54-21.52-.08-9.07-5.83-15.14-14.24-15.25h-.21c-5.26,0-9.53,4.39-9.53,9.01,0,.06-.03.14-.03.21.14,2.69,2.26,4.76,4.88,4.76,3.59,0,6.51,2.95,6.51,6.6s-2.92,6.6-6.51,6.6c-9.83,0-17.87-8.11-17.87-18.17,0-.33.06-.65.09-.93.54-11.82,10.05-21.24,22.63-21.24,17.55,0,23.23,13.1,23.23,13.1,2.45,4.25,3.86,9.24,4,14.6,0,.14.03.25.03.35,0,.08-.03.14-.03.22,0,.11.03.17.03.28,0,.14-.03.28-.03.39-.17,7.92-2.56,14.92-6.64,20.52l-.02.02h0c-1.15,2.26-2.83,4.13-4.56,5.93-4.98,5.14-17.87,7.73-23.28,7.73-24.73,0-41.24-19.67-41.24-42.9s14.36-38.66,31.82-44.73l3.83-.91c6.23-1.48,12.61-2.23,19.01-2.23h152.03v13.18h-156.39c-20.63,0-37.32,13.07-37.32,34.7h.02Z"/>
    <path class="cls-1" d="M656.02,196.04c0,16.02-11.6,29.69-28.25,29.69-12.64,0-21.39-8.71-21.54-21.52.08-9.07,5.83-15.14,14.24-15.25h.21c5.26,0,9.53,4.39,9.53,9.01,0,.06.03.14.03.21-.14,2.69-2.26,4.76-4.88,4.76-3.59,0-6.51,2.95-6.51,6.6s2.92,6.6,6.51,6.6c9.83,0,17.87-8.11,17.87-18.17,0-.33-.06-.65-.09-.93-.54-11.82-10.05-21.24-22.63-21.24-17.55,0-23.23,13.1-23.23,13.1-2.45,4.25-3.86,9.24-4,14.6,0,.14-.03.25-.03.35,0,.08.03.14.03.22,0,.11-.03.17-.03.28s.03.28.03.39c.17,7.92,2.56,14.92,6.64,20.52l.02.02h0c1.15,2.26,2.83,4.13,4.56,5.93,4.98,5.14,17.87,7.73,23.28,7.73,24.73,0,41.24-19.67,41.24-42.9s-14.36-38.66-31.82-44.73l-3.83-.91c-6.23-1.48-12.61-2.23-19.01-2.23h-152.03v13.18h156.39c20.63,0,37.32,13.07,37.32,34.7h-.02Z"/>
    <path class="cls-1" d="M369.27,829.72c0-16.02,11.6-29.69,28.25-29.69,12.64,0,21.39,8.71,21.54,21.52-.08,9.07-5.83,15.14-14.24,15.25h-.21c-5.26,0-9.53-4.39-9.53-9.01,0-.06-.03-.14-.03-.21.14-2.69,2.26-4.76,4.88-4.76,3.59,0,6.51-2.95,6.51-6.6s-2.92-6.6-6.51-6.6c-9.83,0-17.87,8.11-17.87,18.17,0,.33.06.65.09.93.54,11.82,10.05,21.24,22.63,21.24,17.55,0,23.23-13.1,23.23-13.1,2.45-4.25,3.86-9.24,4-14.6,0-.14.03-.25.03-.35,0-.08-.03-.14-.03-.22,0-.11.03-.17.03-.28,0-.14-.03-.28-.03-.39-.17-7.92-2.56-14.92-6.64-20.52l-.02-.02h0c-1.15-2.26-2.83-4.13-4.56-5.93-4.98-5.14-17.87-7.73-23.28-7.73-24.73,0-41.24,19.67-41.24,42.9s14.36,38.66,31.82,44.73l3.83.91c6.23,1.48,12.61,2.23,19.01,2.23h152.03v-13.18h-156.39c-20.63,0-37.32-13.07-37.32-34.7h.02Z"/>
    <path class="cls-1" d="M656.02,829.72c0-16.02-11.6-29.69-28.25-29.69-12.64,0-21.39,8.71-21.54,21.52.08,9.07,5.83,15.14,14.24,15.25h.21c5.26,0,9.53-4.39,9.53-9.01,0-.06.03-.14.03-.21-.14-2.69-2.26-4.76-4.88-4.76-3.59,0-6.51-2.95-6.51-6.6s2.92-6.6,6.51-6.6c9.83,0,17.87,8.11,17.87,18.17,0,.33-.06.65-.09.93-.54,11.82-10.05,21.24-22.63,21.24-17.55,0-23.23-13.1-23.23-13.1-2.45-4.25-3.86-9.24-4-14.6,0-.14-.03-.25-.03-.35,0-.08.03-.14.03-.22,0-.11-.03-.17-.03-.28s.03-.28.03-.39c.17-7.92,2.56-14.92,6.64-20.52l.02-.02h0c1.15-2.26,2.83-4.13,4.56-5.93,4.98-5.14,17.87-7.73,23.28-7.73,24.73,0,41.24,19.67,41.24,42.9s-14.36,38.66-31.82,44.73l-3.83.91c-6.23,1.48-12.61,2.23-19.01,2.23h-152.03v-13.18h156.39c20.63,0,37.32-13.07,37.32-34.7h-.02Z"/>
  </g>
</svg>